#N canvas 2 1098 476 831 12;
#X obj 287 263 soundfiler;
#X obj 117 329 phasor~;
#X obj 117 236 samplerate~;
#X obj 117 296 * 1;
#X obj 218 73 vsl 30 256 0.001 2 1 0 empty empty empty 0 -9 0 10 -262144
-1 -1 16900 0;
#X msg 219 46 1;
#X floatatom 212 344 5 0 0 0 - - -, f 5;
#X obj 227 445 *;
#X floatatom 298 322 5 0 0 0 - - -, f 5;
#X obj 302 305 hsl 256 15 0 1 0 0 empty empty empty -2 -8 0 10 -262144
-1 -1 1000 0;
#X obj 302 340 hsl 256 15 0 1 0 0 empty empty empty -2 -8 0 10 -262144
-1 -1 18600 0;
#X floatatom 299 358 5 0 0 0 - - -, f 5;
#X obj 273 445 *;
#X obj 281 117 openpanel;
#X obj 330 60 table \$0-audio;
#X obj 240 509 -;
#X floatatom 240 540 5 0 0 0 - - -, f 5;
#X obj 280 81 bng 15 250 50 0 empty empty empty 17 7 0 10 -262144 -1
-1;
#X obj 288 213 pack s \$0;
#X obj 352 170 print;
#X msg 287 238 read -resize \$1 \$2-audio;
#X connect 0 0 7 1;
#X connect 0 0 12 1;
#X connect 2 0 3 0;
#X connect 3 0 1 0;
#X connect 4 0 6 0;
#X connect 5 0 4 0;
#X connect 6 0 3 1;
#X connect 7 0 15 1;
#X connect 8 0 7 0;
#X connect 9 0 8 0;
#X connect 10 0 11 0;
#X connect 11 0 12 0;
#X connect 12 0 15 0;
#X connect 13 0 18 0;
#X connect 15 0 16 0;
#X connect 17 0 13 0;
#X connect 18 0 20 0;
#X connect 20 0 0 0;
#X connect 20 0 19 0;
