#N canvas 482 48 476 831 12;
#X obj 124 261 sampler;
#X obj 139 289 dac~;
#X msg 45 159 start 0.1;
#X msg 55 183 end 0.3;
#X msg 38 93 open;
#X msg 72 126 amp 0.5;
#X obj 162 39 hsl 128 15 0 1 0 0 empty empty empty -2 -8 0 10 -262144
-1 -1 8382 0;
#X msg 160 57 start \$1;
#X obj 164 91 hsl 128 15 0 1 0 0 empty empty empty -2 -8 0 10 -262144
-1 -1 4826 0;
#X msg 162 109 end \$1;
#X obj 166 144 hsl 128 15 0 1000 0 1 empty empty empty -2 -8 0 10 -262144
-1 -1 1000 0;
#X msg 164 162 lag \$1;
#X obj 186 214 hsl 128 15 0.25 4 0 1 empty empty empty -2 -8 0 10 -262144
-1 -1 2488 0;
#X msg 179 233 rate \$1;
#X obj 201 405 bng 15 250 50 0 empty empty empty 17 7 0 10 -262144
-1 -1;
#X msg 201 191 1;
#X obj 189 437 random 100;
#X obj 199 465 / 100;
#X obj 205 509 print;
#X obj 259 363 metro 100;
#X obj 261 342 bng 15 250 50 0 empty empty empty 17 7 0 10 -262144
-1 -1;
#X floatatom 318 336 5 0 0 0 - - -, f 5;
#X obj 275 440 random 100;
#X obj 285 468 / 100;
#X msg 321 302 6000;
#X obj 362 444 random 100;
#X obj 360 470 / 100;
#X obj 368 567 -;
#X obj 358 520 t b f;
#X obj 355 363 metro 1200;
#X msg 317 277 24000;
#X msg 400 304 22000;
#X obj 325 35 hsl 128 15 0 1 0 0 empty empty empty -2 -8 0 10 -262144
-1 -1 11900 0;
#X msg 323 53 amp \$1;
#X obj 359 494 * 0.33;
#X obj 359 542 1.11;
#X msg 123 602 start;
#X msg 186 617 stop;
#X obj 106 652 writesf~ 2;
#X msg 51 551 open /tmp/rec2.wav;
#X connect 0 0 1 0;
#X connect 0 0 1 1;
#X connect 0 0 38 0;
#X connect 0 0 38 1;
#X connect 2 0 0 0;
#X connect 3 0 0 0;
#X connect 4 0 0 0;
#X connect 5 0 0 0;
#X connect 6 0 7 0;
#X connect 7 0 0 0;
#X connect 8 0 9 0;
#X connect 9 0 0 0;
#X connect 10 0 11 0;
#X connect 11 0 0 0;
#X connect 12 0 13 0;
#X connect 13 0 0 0;
#X connect 14 0 16 0;
#X connect 14 0 22 0;
#X connect 15 0 12 0;
#X connect 16 0 17 0;
#X connect 17 0 18 0;
#X connect 17 0 6 0;
#X connect 19 0 14 0;
#X connect 20 0 19 0;
#X connect 20 0 29 0;
#X connect 21 0 19 1;
#X connect 22 0 23 0;
#X connect 23 0 8 0;
#X connect 24 0 21 0;
#X connect 25 0 26 0;
#X connect 26 0 34 0;
#X connect 27 0 12 0;
#X connect 28 0 35 0;
#X connect 28 1 27 1;
#X connect 29 0 25 0;
#X connect 30 0 21 0;
#X connect 31 0 29 1;
#X connect 32 0 33 0;
#X connect 33 0 0 0;
#X connect 34 0 28 0;
#X connect 35 0 27 0;
#X connect 36 0 38 0;
#X connect 37 0 38 0;
#X connect 39 0 38 0;
