#N canvas 962 48 476 831 12;
#X obj 371 247 soundfiler;
#X obj 377 167 openpanel;
#X obj 451 590 vu 15 120 empty empty -1 -8 0 10 -66577 -1 1 0;
#X obj 439 526 env~ 128;
#X obj 439 549 - 100;
#X obj 379 670 *~;
#X obj 430 582 vsl 15 128 0.01 1 1 0 empty empty empty 0 -9 0 10 -262144
-1 -1 12521 0;
#X obj 377 129 bng 25 250 50 0 empty empty empty 17 7 0 10 -262144
-1 -1;
#X obj 371 272 t f b;
#X floatatom 372 377 20 0 0 0 - - -, f 20;
#X obj 73 188 hsl 256 20 0 1 0 0 empty empty empty -2 -8 0 10 -262144
-1 -1 9690 0;
#X obj 73 164 hsl 256 20 0 1 0 0 empty empty empty -2 -8 0 10 -262144
-1 -1 16830 0;
#X obj 115 264 -;
#X obj 110 230 t f b;
#X floatatom 115 291 5 0 0 0 - - -, f 5;
#X obj 372 399 s frames;
#X obj 114 312 s seg;
#X text 160 300 fractional diff between start/end;
#X obj 273 268 s end;
#X floatatom 182 249 5 0 0 0 - - -, f 5;
#X obj 183 271 s start;
#X floatatom 272 246 5 0 0 0 - - -, f 5;
#X obj 57 747 +~;
#X obj 76 698 r start;
#X obj 186 696 r frames;
#X obj 74 722 *;
#X obj 57 671 *~;
#X obj 76 620 r seg;
#X obj 123 622 r frames;
#X obj 76 643 *;
#X obj 58 778 s~ ndx;
#X obj 380 461 r~ ndx;
#X obj 142 548 /;
#X obj 128 495 t b f;
#X obj 219 616 phasor~;
#X obj 555 264 r frames;
#X obj 552 333 s dur;
#X obj 552 306 expr 44100 / $f1;
#X msg 128 521 1;
#X obj 128 468 expr $f1 / $f2;
#X obj 103 351 r seg;
#X obj 223 438 r dur;
#X obj 48 423 moses 0;
#X obj 103 375 t f f;
#X text 6 400 switch playback direction;
#X obj 184 547 line~;
#X floatatom 243 497 5 0 0 0 - - -, f 5;
#X obj 71 101 clip 0 1;
#X obj 82 123 clip 0 1;
#X obj 157 100 clip 0 1000;
#X obj 161 122 s lag;
#X obj 240 470 r lag;
#X obj 70 16 inlet;
#X obj 382 789 outlet~;
#X obj 418 123 table \$0-buf;
#X obj 376 193 pack s \$0;
#X msg 374 218 read -maxsize 8e+06 -resize \$1 \$2-buf;
#X obj 412 299 \$0;
#X obj 380 494 tabread4~ \$0-buf;
#X msg 413 323 \; \$1-buf normalize;
#X obj 255 121 s amp;
#X obj 322 548 r amp;
#X obj 253 96 clip 0 1;
#X obj 185 523 pack 0 30;
#X obj 65 47 route start end lag open amp rate;
#X obj 321 118 s rate;
#X obj 59 590 *~ 1;
#X msg 47 448 1;
#X msg 81 448 -1;
#X obj 222 586 *~ 1;
#X obj 258 562 r rate;
#X obj 138 697 r end;
#X obj 138 719 bng 15 250 50 0 empty empty empty 17 7 0 10 -262144
-1 -1;
#X connect 0 0 8 0;
#X connect 1 0 55 0;
#X connect 3 0 4 0;
#X connect 4 0 2 1;
#X connect 5 0 3 0;
#X connect 5 0 53 0;
#X connect 6 0 5 1;
#X connect 7 0 1 0;
#X connect 8 0 9 0;
#X connect 8 1 57 0;
#X connect 9 0 15 0;
#X connect 10 0 13 0;
#X connect 10 0 21 0;
#X connect 11 0 12 0;
#X connect 11 0 19 0;
#X connect 12 0 14 0;
#X connect 13 0 12 1;
#X connect 13 1 12 0;
#X connect 14 0 16 0;
#X connect 19 0 20 0;
#X connect 21 0 18 0;
#X connect 22 0 30 0;
#X connect 23 0 25 0;
#X connect 24 0 25 1;
#X connect 25 0 22 1;
#X connect 26 0 22 0;
#X connect 27 0 29 0;
#X connect 28 0 29 1;
#X connect 29 0 26 1;
#X connect 31 0 58 0;
#X connect 32 0 63 0;
#X connect 33 0 38 0;
#X connect 33 1 32 1;
#X connect 34 0 66 0;
#X connect 35 0 37 0;
#X connect 37 0 36 0;
#X connect 38 0 32 0;
#X connect 39 0 33 0;
#X connect 40 0 43 0;
#X connect 41 0 39 1;
#X connect 42 0 67 0;
#X connect 42 1 68 0;
#X connect 43 0 39 0;
#X connect 43 1 42 0;
#X connect 45 0 69 0;
#X connect 46 0 63 1;
#X connect 47 0 11 0;
#X connect 48 0 10 0;
#X connect 49 0 50 0;
#X connect 51 0 46 0;
#X connect 52 0 64 0;
#X connect 55 0 56 0;
#X connect 56 0 0 0;
#X connect 57 0 59 0;
#X connect 58 0 5 0;
#X connect 61 0 6 0;
#X connect 62 0 60 0;
#X connect 63 0 45 0;
#X connect 64 0 47 0;
#X connect 64 1 48 0;
#X connect 64 2 49 0;
#X connect 64 3 7 0;
#X connect 64 4 62 0;
#X connect 64 5 65 0;
#X connect 66 0 26 0;
#X connect 67 0 66 1;
#X connect 68 0 66 1;
#X connect 69 0 34 0;
#X connect 70 0 69 1;
#X connect 71 0 72 0;
#X connect 72 0 25 0;
